<svg width="43" height="43" viewBox="0 0 43 43" fill="none" xmlns="http://www.w3.org/2000/svg">
<path d="M12.1013 20.9644C12.1013 19.1369 12.5224 17.4975 13.3644 16.0462C14.2244 14.595 15.3801 13.4662 16.8313 12.66C18.3005 11.8358 19.904 11.4237 21.6419 11.4237C23.6307 11.4237 25.3955 11.9165 26.9363 12.9019C28.4951 13.8694 29.6238 15.249 30.3226 17.0406H26.6407C26.1569 16.0552 25.4851 15.3206 24.6251 14.8369C23.7651 14.3531 22.7707 14.1112 21.6419 14.1112C20.4057 14.1112 19.3038 14.389 18.3363 14.9444C17.3688 15.4998 16.6074 16.2971 16.0519 17.3362C15.5144 18.3754 15.2457 19.5848 15.2457 20.9644C15.2457 22.344 15.5144 23.5533 16.0519 24.5925C16.6074 25.6317 17.3688 26.4379 18.3363 27.0112C19.3038 27.5667 20.4057 27.8444 21.6419 27.8444C22.7707 27.8444 23.7651 27.6025 24.6251 27.1187C25.4851 26.635 26.1569 25.9004 26.6407 24.915H30.3226C29.6238 26.7067 28.4951 28.0862 26.9363 29.0537C25.3955 30.0212 23.6307 30.505 21.6419 30.505C19.8861 30.505 18.2826 30.1019 16.8313 29.2956C15.3801 28.4715 14.2244 27.3337 13.3644 25.8825C12.5224 24.4312 12.1013 22.7919 12.1013 20.9644Z" fill="#F8FBFD"/>
<circle cx="21.5" cy="21.5" r="19.8203" stroke="white" stroke-width="3.35938"/>
</svg>
