<svg width="48" height="48" viewBox="0 0 48 48" fill="none" xmlns="http://www.w3.org/2000/svg">
<path d="M46 6.00058C44.0848 7.35153 41.9642 8.3848 39.72 9.06058C38.5155 7.6756 36.9147 6.69396 35.1341 6.24843C33.3535 5.8029 31.479 5.91497 29.7642 6.56949C28.0493 7.224 26.5769 8.38938 25.546 9.90801C24.515 11.4266 23.9754 13.2253 24 15.0606V17.0606C20.4853 17.1517 17.0025 16.3722 13.862 14.7915C10.7215 13.2107 8.02063 10.8779 6 8.00058C6 8.00058 -2 26.0006 16 34.0006C11.8811 36.7965 6.97431 38.1984 2 38.0006C20 48.0006 42 38.0006 42 15.0006C41.9982 14.4435 41.9446 13.8878 41.84 13.3406C43.8812 11.3276 45.3217 8.78601 46 6.00058V6.00058Z" stroke="#FDFAFA" stroke-width="2" stroke-linecap="round" stroke-linejoin="round"/>
</svg>
