<svg width="48" height="48" viewBox="0 0 48 48" fill="none" xmlns="http://www.w3.org/2000/svg">
<path d="M34 4H14C8.47715 4 4 8.47715 4 14V34C4 39.5228 8.47715 44 14 44H34C39.5228 44 44 39.5228 44 34V14C44 8.47715 39.5228 4 34 4Z" stroke="white" stroke-width="3" stroke-linecap="round" stroke-linejoin="round"/>
<path d="M32.0004 22.7406C32.2472 24.4051 31.9629 26.105 31.1879 27.5986C30.4129 29.0922 29.1867 30.3034 27.6836 31.0599C26.1806 31.8165 24.4773 32.0798 22.816 31.8125C21.1546 31.5451 19.6199 30.7608 18.4301 29.5709C17.2402 28.3811 16.4559 26.8464 16.1885 25.185C15.9212 23.5237 16.1845 21.8204 16.941 20.3174C17.6976 18.8143 18.9088 17.5881 20.4024 16.8131C21.896 16.0381 23.5959 15.7538 25.2604 16.0006C26.9582 16.2524 28.5301 17.0435 29.7438 18.2572C30.9575 19.4709 31.7486 21.0428 32.0004 22.7406Z" stroke="white" stroke-width="3" stroke-linecap="round" stroke-linejoin="round"/>
<path d="M35 13H35.02" stroke="white" stroke-width="3" stroke-linecap="round" stroke-linejoin="round"/>
</svg>
